<?xml version="1.0" encoding="UTF-8"?>
<svg xmlns="http://www.w3.org/2000/svg" xmlns:xlink="http://www.w3.org/1999/xlink" width="36px" height="41px" viewBox="0 0 36 41" version="1.1">
<g id="surface1">
<path style=" stroke:none;fill-rule:nonzero;fill:rgb(20%,20%,20%);fill-opacity:1;" d="M 9.070312 35.890625 L 0.546875 30.953125 L 0.546875 10.421875 L 9.339844 5.398438 L 18.132812 0.378906 L 20.367188 1.667969 L 28.007812 6.046875 L 35.644531 10.421875 L 35.648438 20.6875 L 35.65625 30.953125 L 27.136719 35.832031 L 18.621094 40.714844 L 18.109375 40.769531 L 17.59375 40.824219 Z M 17.425781 29.996094 L 17.425781 21.125 L 2.394531 12.507812 L 2.136719 12.367188 L 1.875 12.226562 L 1.964844 21.203125 L 2.054688 30.175781 L 9.488281 34.511719 L 16.917969 38.847656 L 17.425781 38.863281 L 17.425781 29.992188 Z M 9.65625 29.972656 L 6.109375 27.878906 L 5.921875 19.339844 L 6.210938 19.339844 L 9.789062 21.386719 L 13.371094 23.433594 L 13.371094 32.128906 L 13.285156 32.097656 L 13.203125 32.0625 Z M 26.710938 34.519531 L 34.144531 30.183594 L 34.234375 24.59375 L 34.328125 19.003906 L 33.953125 19.003906 L 28.644531 22.078125 L 23.335938 25.148438 L 22.828125 25.4375 L 22.828125 23.449219 L 34.3125 16.894531 L 34.3125 12.207031 L 32.117188 13.480469 L 18.773438 21.113281 L 18.773438 32.542969 L 20.296875 31.566406 L 25.0625 28.820312 L 29.832031 26.070312 L 30.304688 26.070312 L 30.195312 26.980469 L 30.089844 27.890625 L 24.515625 31.113281 L 18.945312 34.332031 L 18.84375 36.597656 L 18.746094 38.863281 L 19.011719 38.855469 L 19.28125 38.851562 Z M 20.121094 19.085938 L 21.804688 18.160156 L 21.703125 17.84375 L 21.601562 17.523438 L 16.304688 14.484375 L 11.007812 11.441406 L 11.007812 10.949219 L 11.667969 10.59375 L 12.332031 10.242188 L 23.457031 16.648438 L 24.25 16.648438 L 28.773438 14.085938 L 33.296875 11.519531 L 33.296875 10.988281 L 25.921875 6.75 L 18.542969 2.511719 L 17.691406 2.511719 L 14.386719 4.363281 L 14.382812 4.570312 L 14.382812 4.78125 L 19.789062 7.894531 L 25.191406 11.011719 L 25.191406 11.574219 L 24.566406 11.910156 L 23.941406 12.242188 L 18.144531 8.914062 L 12.351562 5.585938 L 7.609375 8.292969 L 2.867188 10.996094 L 3.070312 11.605469 L 17.59375 19.949219 L 18.015625 19.980469 L 18.4375 20.015625 L 20.121094 19.089844 Z M 20.121094 19.085938 "/>
</g>
</svg>
